<?xml version="1.0" encoding="UTF-8" standalone="no"?>
<svg
   version="1.1"
   id="svg1"
   width="512"
   height="512"
   viewBox="0 0 512 512"
   xmlns="http://www.w3.org/2000/svg">
  <defs id="defs1" />
  <g id="g1">
    <path
       style="fill:none;stroke:#4ade80;stroke-width:4"
       d="M 248.13293,414.35934 c -8.17656,-1.1661 -22.41551,-6.15346 -29.1362,-10.20529 -14.56211,-8.77935 -26.03415,-21.43434 -33.83467,-37.32356 -5.55203,-11.30919 -8.13157,-19.43011 -10.00568,-31.5 -3.84878,-24.78742 0.22823,-48.53382 9.70132,-56.50489 2.4319,-2.04632 3.95776,-2.53295 7.19891,-2.29591 3.68583,0.26957 4.31884,0.71614 6.0962,4.3008 2.57308,5.18948 2.91425,21.52754 0.5,23.94393 -1.35614,1.35734 -1.86265,1.30766 -4.78456,-0.46926 -4.40965,-2.68167 -5.48231,-5.77924 -3.06799,-8.85953 2.46671,-3.14712 2.36005,-4.32471 -0.35636,-3.93469 -3.50471,0.5032 -5.65501,7.50375 -5.72001,18.62214 -0.10752,18.39216 6.03319,34.95248 17.44729,47.05203 10.02475,10.62677 20.79724,15.14538 36.10699,15.14538 l 6.33568,4e-5 3.08851,-6.25 c 1.69868,-3.4375 4.72753,-7.9375 6.73078,-10 l 3.64227,-3.75 10.04705,-0.12644 10.04705,-0.12643 -13.11291,-1.30285 c -7.2121,-0.71656 -14.80455,-2.00965 -16.87212,-2.87354 -5.20047,-2.17289 -5.7016,-2.07167 -11.17902,2.25798 -3.17485,2.50957 -5.80042,5.78265 -7.62063,9.5 l -2.77697,5.67132 -6.36218,3e-5 c -7.39222,4e-5 -8.08109,-0.78476 -6.57767,-7.49329 2.09861,-9.36443 5.0651,-15.46358 9.09712,-18.7038 2.55128,-2.05026 3.59789,-3.5094 2.9686,-4.13869 -1.58641,-1.58641 -7.82038,3.93401 -11.1951,9.91369 l -3.06004,5.42209 -6.28791,-4e-5 c -7.44435,-2e-5 -7.9483,-0.76869 -5.85822,-8.93564 2.06079,-8.05252 4.54025,-12.95973 9.78824,-19.37235 l 4.75317,-5.80799 -3.56623,-10.73556 c -7.2878,-21.93872 -7.2339,-40.81114 0.20759,-72.68017 4.2699,-18.28635 5.48444,-25.75359 4.11054,-25.27232 -0.47736,0.16722 -4.6003,3.97085 -9.16209,8.45252 -8.18522,8.04146 -8.37786,8.34608 -14.66507,23.18941 -3.504,8.2725 -7.0283,15.29318 -7.83179,15.60151 -0.80349,0.30832 -2.53871,0.56059 -3.85604,0.56059 -1.46421,2e-5 -3.04492,0.99166 -4.06687,2.55135 -0.91944,1.40324 -2.01624,2.19074 -2.43735,1.75 -0.4211,-0.44074 -2.38144,-5.70826 -4.3563,-11.70559 l -3.59067,-10.90424 6.5315,-15.13096 c 5.64533,-13.07804 6.67449,-16.41168 7.58539,-24.57036 0.57963,-5.19167 1.76325,-11.02583 2.63026,-12.9648 1.03921,-2.32408 1.81627,-8.29607 2.28036,-17.5254 0.57491,-11.43301 1.21761,-15.52906 3.50519,-22.33927 1.54067,-4.5866 3.61334,-9.31159 4.60595,-10.49999 1.76583,-2.11415 1.80545,-1.9626 1.838,7.03024 0.0183,5.05504 0.38402,9.40776 0.81271,9.6727 0.42869,0.26495 3.33685,-4.77099 6.46258,-11.19098 5.15827,-10.59462 12.74804,-21.45294 14.08926,-20.1568 0.29361,0.28375 -0.20764,4.87442 -1.11389,10.2015 -0.90625,5.32708 -1.29484,10.03848 -0.86353,10.46979 0.4313,0.43131 2.66563,-1.31128 4.96517,-3.87243 4.65503,-5.18463 7.31384,-6.81475 11.11523,-6.81475 2.93136,0 3.21156,1.38333 1.1336,5.59636 -0.78768,1.597 -1.72361,4.08991 -2.07984,5.53979 -0.64329,2.61822 -0.61551,2.63254 4.08163,2.1031 5.37051,-0.60533 11.43035,1.90288 11.43035,4.73112 0,0.91049 -1.35,2.94882 -3,4.52962 -1.65,1.5808 -3,3.4473 -3,4.14778 0,0.70048 2.16104,2.68834 4.8023,4.41746 5.39553,3.53222 9.72456,9.1194 8.84394,11.41426 -0.34458,0.89796 -1.82462,1.5205 -3.61486,1.5205 -4.33422,-5e-5 -4.0871,3.59292 0.55394,8.05383 4.07027,3.9123 6.41468,7.89471 6.41468,10.89651 0,1.61545 -0.64218,2.04966 -3.03138,2.04966 -1.73399,2e-5 -3.27097,0.62433 -3.59117,1.45876 -0.77906,2.0302 1.57073,8.72518 2.90611,8.28005 0.60186,-0.20062 5.33058,-6.63642 10.50827,-14.30178 l 9.414,-13.93703 -0.54656,-12 c -0.58182,-12.77407 -2.09117,-21.35822 -6.37571,-36.26053 -3.44939,-11.99756 -2.85154,-12.67967 6.6429,-7.57908 40.06635,21.52437 71.55763,71.01357 88.57132,139.19167 3.68261,14.75713 4.58228,21.38183 3.00221,22.1067 -0.55,0.25231 -2.68656,-2.67269 -4.74791,-6.5 -2.06135,-3.82732 -5.81739,-8.87126 -8.34675,-11.20876 -3.91488,-3.61793 -5.23364,-4.25 -8.86723,-4.25 -2.7542,2e-5 -5.17037,0.70949 -6.81098,2 -1.39842,1.1 -2.80347,2 -3.12231,2 -0.31885,3.1e-4 -1.7621,-1.9125 -3.20722,-4.25 -8.33376,-13.47997 -17.1409,-17.0441 -25.25192,-10.21913 l -3.00846,2.53146 -4.44954,-6.87829 c -5.71089,-8.82815 -9.38124,-11.46192 -16.71194,-11.99218 -9.44489,-0.68318 -15.95804,4.42455 -23.04191,18.06989 -4.84867,9.33976 -6.15505,10.66172 -10.58023,10.70645 -2.36155,0.0239 -3.90698,-0.83444 -6.19545,-3.44087 -3.69132,-4.20418 -5.15238,-9.05311 -5.1306,-17.02733 0.0196,-7.18017 1.75078,-11.33766 9.39509,-22.56271 3.06755,-4.50445 5.57737,-8.52649 5.57737,-8.93787 0,-0.41138 -0.65629,-2.6081 -1.45843,-4.8816 -0.80214,-2.2735 -2.57969,-10.54257 -3.95012,-18.37573 -3.42474,-19.57528 -8.19664,-30.47652 -15.67028,-35.79822 -3.5981,-2.56207 -9.47502,-4.08758 -12.67117,-3.28914 -2.09956,0.5245 -2.25,1.09828 -2.25,8.58149 v 8.0194 l 3.93964,-0.62998 c 2.3468,-0.37527 4.20038,-0.20809 4.58454,0.41348 0.35468,0.57389 -0.13637,5.08611 -1.09123,10.02715 l -1.7361,8.9837 3.19782,4.4529 c 7.60515,10.58997 9.44727,24.87908 6.7198,52.12459 -3.3087,33.05167 -1.83699,51.11863 5.36404,65.84984 l 2.94407,6.0227 -0.58957,-9.63105 c -0.66372,-10.84245 0.57881,-18.07957 4.18387,-24.36895 3.52737,-6.15384 6.76163,-8.66435 11.90971,-9.24461 4.2839,-0.48286 4.79353,-0.27057 8.67991,3.61581 2.27084,2.27084 4.28732,4.1288 4.48108,4.1288 0.19375,-10e-6 2.01392,-3.40765 4.04481,-7.57255 4.15971,-8.5306 10.43277,-16.07053 15.75498,-18.93673 5.9526,-3.20568 7.67542,1.25066 1.83127,4.73686 -4.40703,2.62892 -10.70422,9.41127 -13.48955,14.52884 -5.56593,10.22644 -10.13899,29.62086 -12.23968,51.90864 -0.61712,6.5474 -0.50058,7.2586 1.35189,8.25 1.11497,0.59672 2.96393,1.08494 4.1088,1.08494 2.02918,1e-5 2.06601,-0.30844 1.46276,-12.25 -0.98622,-19.5227 3.00414,-33.27082 12.08673,-41.64286 4.11535,-3.79339 4.88488,-4.10714 10.0737,-4.10714 7.64725,1e-5 11.16225,2.40179 17.48257,11.94578 4.24577,6.41132 3.96834,8.05422 -1.36009,8.05422 -6.60718,-2e-5 -12.46577,4.21508 -16.57536,11.92547 -2.42157,4.54332 -3.63682,5.95812 -4.43349,5.16145 -0.79666,-0.79666 -0.60801,-2.53754 0.68825,-6.35107 1.7478,-5.14194 1.74153,-5.36573 -0.29471,-10.53173 -1.14425,-2.90299 -2.08046,-6.58494 -2.08046,-8.18212 0,-4.29123 -1.53691,-4.4957 -4.50844,-0.59982 -10.69555,14.02258 -10.45466,44.285 0.47257,59.3696 4.926,6.80015 9.49136,9.63679 15.50968,9.63679 6.1291,-1e-5 9.75224,-2.00251 12.71814,-7.02934 1.62522,-2.75454 2.31802,-3.22087 3.42284,-2.30395 1.0613,0.8808 1.38356,4.45301 1.37819,15.27716 -0.007,14.45652 -1.71136,25.01232 -5.48687,33.98565 -0.89281,2.12194 -1.35912,4.12224 -1.03626,4.4451 0.85435,0.85436 10.70595,-9.84283 14.74763,-16.01348 15.38094,-23.48286 20.46463,-62.54012 12.8816,-98.96746 -1.86495,-8.95886 -1.59647,-11.33408 1.16151,-10.27574 1.23393,0.4735 1.67387,-0.1312 1.92005,-2.63912 0.17564,-1.78935 0.8704,-3.43421 1.5439,-3.65523 1.30518,-0.42832 7.52015,8.54288 6.76487,9.76496 -0.24629,0.39851 -1.78269,0.99153 -3.41423,1.31784 -1.63153,0.32631 -3.4504,1.49761 -4.04193,2.6029 -0.89986,1.6814 -0.52203,2.62634 2.31347,5.78587 1.86393,2.07695 4.33788,5.65014 5.49765,7.94041 2.19984,4.34419 4.57131,13.2535 3.74717,14.07765 -0.26202,0.26201 -1.80928,-0.4727 -3.43835,-1.6327 -1.62907,-1.16 -3.45497,-2.10909 -4.05757,-2.10909 -1.97133,-10e-6 -1.30948,11.66049 0.90863,16.00836 3.54173,6.94235 6.56504,24.01754 4.24574,23.97926 -0.4125,-0.007 -1.76664,-1.58181 -3.00919,-3.5 -1.24256,-1.91819 -2.67749,-3.48762 -3.18873,-3.48762 -1.62218,-4e-5 -2.37969,9.06882 -1.18855,14.22914 1.26857,5.49571 1.55308,20.77774 0.38647,20.75848 -0.4125,-0.007 -1.77783,-1.59889 -3.03407,-3.53796 -1.25625,-1.93906 -2.65542,-3.29607 -3.10929,-3.01557 -0.45386,0.28051 -1.07208,5.58509 -1.37381,11.78796 -0.76596,15.7464 -3.57319,22.6013 -5.23283,12.77795 -0.84593,-5.00704 -2.41195,-6.04451 -4.40864,-2.92069 -2.9069,4.54782 -14.47422,15.98039 -19.53676,19.30917 -2.78003,1.82796 -8.80881,4.76004 -13.39731,6.51574 -7.51712,2.87627 -9.64478,3.23143 -21.5,3.58886 -7.2365,0.21817 -15.87374,0.009 -19.19386,-0.46423 z m 30.45467,-6.15866 c 8.23936,-1.41433 15.21056,-4.86123 18.46742,-9.13121 6.94932,-9.11103 11.95609,-25.9161 11.4129,-38.30705 l -0.29842,-6.8073 -2.62195,3.93768 c -5.55609,8.34422 -13.70946,14.88853 -22.37804,17.96172 -3.99609,1.41669 -9.36703,1.8675 -26.75,2.24524 -11.9625,0.25995 -21.75,0.78654 -21.75,1.17018 0,1.94215 3.51277,12.1327 5.60966,16.27363 2.82975,5.58818 7.96212,11.66424 10.83567,12.82801 3.0406,1.23144 19.91474,1.12646 27.47276,-0.1709 z m -41.0438,-9.61458 c -2.15411,-4.26558 -4.42561,-10.45561 -5.04778,-13.75561 -0.62217,-3.3 -1.24189,-6.14173 -1.37716,-6.31496 -0.13527,-0.17323 -3.00033,-0.95752 -6.3668,-1.74286 -8.81898,-2.05733 -15.65102,-5.86158 -22.72369,-12.6531 -5.81775,-5.58649 -6.2669,-5.82942 -7.27959,-3.93721 -0.5936,1.10916 -1.07927,4.70582 -1.07927,7.99259 0,5.4187 0.35716,6.42725 3.83015,10.81574 5.37822,6.79595 14.10744,14.54961 21.29748,18.91733 6.00817,3.64977 20.74913,9.54762 22.0178,8.80931 0.35498,-0.20659 -1.11703,-3.86564 -3.27114,-8.13123 z m 18.0388,-31.75561 c 1.70721,-3.025 3.77516,-5.5 4.59546,-5.5 1.96524,-3e-5 1.95901,4.36707 -0.009,6 -0.825,0.68469 -1.5,2.15777 -1.5,3.27351 0,1.94155 0.42299,2.00284 9.8561,1.42815 5.8775,-0.35807 11.86959,-1.36552 14.84408,-2.49574 5.92625,-2.2518 13.86792,-7.53042 15.26945,-10.14919 0.96456,-1.8023 0.28986,-1.85082 -19.235,-1.38322 -11.12904,0.26652 -20.76818,0.64879 -21.4203,0.84947 -1.47831,0.45507 -8.31388,10.49647 -8.31388,12.21367 0,3.01848 3.0531,0.83097 5.91309,-4.23665 z m -63.90907,-9.09898 c 1.14551,-3.86003 1.0096,-4.53041 -2.33143,-11.5 -3.60453,-7.51928 -7.67259,-20.54919 -7.67259,-24.57516 0,-1.21788 -1.15827,-3.47693 -2.57394,-5.0201 l -2.57394,-2.80576 0.57522,8.69069 c 0.92256,13.93865 4.72385,29.09576 9.85848,39.30931 2.21908,4.41409 2.1824,4.44597 4.7182,-4.09898 z m 34.78446,-2.07368 c 3.68456,-6.34947 7.04502,-9.57332 18.93499,-18.16523 l 10.15458,-7.3379 0.62013,-5.6621 c 1.43935,-13.14206 4.56705,-34.91032 5.46563,-38.03984 1.09439,-3.81148 0.29404,-6.01164 -3.77309,-10.37227 -4.95967,-5.31758 -12.48484,-2.88327 -16.78341,5.42924 -3.33625,6.4516 -3.62077,11.90201 -1.46722,28.10678 1.13295,8.52506 2.05991,15.93543 2.05991,16.46751 0,0.53207 -4.91081,5.86769 -10.91291,11.85693 -8.41328,8.39527 -11.19301,11.84582 -12.13579,15.06447 -1.51807,5.18267 -0.77057,7.32507 2.55579,7.32507 2.0063,-5e-5 3.16449,-1.0247 5.28139,-4.67266 z m 110.21151,1.23168 c 0,-0.79254 -0.45,-1.7191 -1,-2.05902 -0.55,-0.33992 -1,0.30852 -1,1.44098 0,1.13246 0.45,2.05902 1,2.05902 0.55,2.8e-4 1,-0.64844 1,-1.44098 z M 212.5161,339.94832 c 1.67063,-2.96019 4.50531,-6.53089 6.29928,-7.93489 3.49087,-2.73201 3.40915,-3.68897 -0.78419,-9.18294 -1.4791,-1.93787 -1.68933,-1.81958 -6.76747,3.80817 -5.26012,5.8294 -9.32909,14.33437 -8.2292,17.20065 0.32734,0.85303 1.82865,1.49118 3.50815,1.49118 2.50799,3e-5 3.37866,-0.78448 5.97343,-5.38217 z m 61.15341,3.4161 c 0,-2.04656 -3.40448,-7.97517 -4.91188,-8.55361 -1.03034,-0.39538 -2.71935,0.63197 -4.83575,2.94136 -4.99985,5.45578 -4.44567,6.57832 3.24763,6.57832 3.575,4e-5 6.5,-0.43473 6.5,-0.96607 z m -15.95056,-4.13084 c 1.14954,-2.25329 1.86531,-4.32167 1.5906,-4.59639 -0.6307,-0.6307 -9.64004,5.51383 -9.64004,6.57467 0,1.38091 1.26968,2.11863 3.64634,2.11863 1.70086,2e-5 2.86617,-1.08428 4.4031,-4.09691 z M 234.3719,328.13432 c 3.54947,-3.44027 4.12571,-6.28907 1.89047,-9.34595 -1.34297,-1.83662 -1.59192,-1.71992 -5.45899,2.55887 -4.60297,5.09306 -4.76553,5.6278 -2.47888,8.15451 2.15424,2.38041 2.18864,2.37263 6.0474,-1.36743 z m 107.28229,0.44617 c -0.008,-0.4125 -0.45153,-1.425 -0.98469,-2.25 -0.78387,-1.21296 -0.9723,-1.06944 -0.98469,0.75 -0.008,1.2375 0.43469,2.25 0.98469,2.25 0.55,2.9e-4 0.99311,-0.3375 0.98469,-0.75 z m -116.02451,-8.88554 c 1.52281,-0.89955 3.46316,-2.81205 4.3119,-4.25 1.44259,-2.44409 1.35621,-3.0706 -1.32557,-9.61446 -1.57779,-3.85 -3.35128,-8.90403 -3.94108,-11.23117 l -1.07237,-4.23117 -6.21652,0.62113 c -3.41909,0.34163 -6.41849,0.79762 -6.66534,1.01331 -1.74542,1.52519 9.40099,29.22982 11.79452,29.31552 0.19014,0.007 1.59164,-0.72361 3.11446,-1.62316 z m -44.48831,-15.98557 c 1.74388,-13.95754 7.89713,-21.86704 13.02351,-16.74066 1.13508,1.13508 1.56306,3.05466 1.39346,6.25 -0.13462,2.53647 0.17281,4.61177 0.6832,4.61177 1.31037,-2e-5 0.89332,-8.96234 -0.5829,-12.52624 -2.47313,-5.97066 -9.73806,-3.35099 -13.93885,5.02624 -2.55338,5.09195 -4.24384,12.84222 -3.51997,16.138 0.98593,4.48891 2.17537,3.37325 2.94155,-2.75911 z m 159.1442,-11.19139 c -1.48809,-1.4881 -1.61607,-1.44732 -1.61607,0.51488 0,1.17202 0.5625,2.32595 1.25,2.56429 1.93506,0.67082 2.1668,-1.27844 0.36607,-3.07917 z m -40.24491,-6.1875 c 3.05036,-10e-6 2.71451,-2.18305 -0.85357,-5.54818 -3.15317,-2.97382 -4.34252,-3.45182 -8.58878,-3.45182 -5.568,-2e-5 -5.93131,0.80856 -3.81926,8.5 1.78868,6.51379 2.51539,6.85414 7.42394,3.47696 2.37978,-1.63733 5.00672,-2.97696 5.83767,-2.97696 z m -79.95294,-1.60699 c 1.33382,-0.51183 1.58179,-2.71402 1.58179,-14.04772 v -13.44072 l -6.25,0.29771 -6.25,0.29772 -0.28166,12.35939 c -0.18819,8.25828 0.1013,12.82083 0.87245,13.75 1.17272,1.41305 7.4466,1.8891 10.32742,0.78362 z m 136.21827,-23.14301 c -0.27405,-0.9625 -1.67334,-6.15536 -3.10951,-11.53968 -10.95171,-41.05862 -30.27723,-77.1556 -54.60835,-101.99964 -6.52099,-6.65846 -12.14432,-11.81831 -12.49628,-11.46634 -0.35197,0.35197 3.0813,7.05949 7.62948,14.90562 8.78851,15.16118 13.49205,24.80171 19.19858,39.35004 6.66739,16.99796 14.06558,41.71227 16.7951,56.1055 1.44098,7.59853 2.38946,9.35953 4.11285,7.63614 2.40143,-2.40143 9.6275,-1.48506 14.44921,1.83237 2.45736,1.69071 5.00918,3.94071 5.67072,5 1.50213,2.40528 3.02532,2.51895 2.3582,0.17599 z m -108.65953,-7.22695 c 3.01789,-3.01789 4.87643,-8.35097 5.98147,-17.16382 1.33606,-10.65525 2.21627,-13.66777 7.89309,-27.01394 4.97086,-11.68646 7.81595,-20.51116 6.90615,-21.42096 -0.99094,-0.99095 -28.73144,39.87534 -31.39481,46.24967 -2.81222,6.73059 0.008,18.32813 4.93951,20.31421 3.16747,1.27558 3.48844,1.22099 5.67459,-0.96516 z m -24.65052,-6.77305 c 0.32013,-2.0625 0.89197,-8.3625 1.27076,-14 l 0.68872,-10.25 -4.10441,-3e-5 c -4.61084,2e-5 -3.76975,-1.62189 -8.12446,15.66661 -3.12617,12.41115 -3.15023,12.33339 3.81515,12.33339 l 5.87219,-4e-5 z m -44.004,-9.7743 c 2.65234,-6.86163 5.19169,-12.4757 5.64301,-12.4757 2.03169,-2e-5 1.59233,3.29346 -1.54402,11.57406 -3.43541,9.07018 -4.1224,12.42594 -2.54386,12.42594 1.63357,2e-5 2.98736,-2.52629 8.58967,-16.02902 5.55744,-13.39458 5.638,-13.51725 14.20497,-21.6288 7.90266,-7.48256 8.79578,-8.72538 10.78983,-15.01471 1.59993,-5.04627 1.94482,-7.64519 1.3061,-9.84218 -0.47734,-1.64191 -0.59614,-6.3089 -0.264,-10.37109 l 0.60388,-7.3858 -3.01523,0.60304 c -1.85431,0.37087 -3.29763,0.14612 -3.7487,-0.58372 -0.85015,-1.37558 -0.67413,-26.44543 0.22467,-31.99771 1.8865,-11.6538 -6.82087,5.83774 -9.55897,19.20227 -2.16653,10.57469 -2.73819,11.8014 -4.42473,9.49492 -1.04321,-1.42668 -2.04015,0.29142 -6.78332,11.69016 -4.6051,11.06692 -5.7563,15.0528 -6.7008,23.20048 -0.62723,5.41081 -1.75826,11.03581 -2.5134,12.5 -0.75514,1.46419 -3.46311,7.55925 -6.01772,13.54458 l -4.64474,10.88243 2.119,6.36757 c 1.16544,3.50217 2.4198,6.35665 2.78746,6.34328 0.36766,-0.0138 2.83856,-5.63836 5.4909,-12.5 z m -6.84995,2.27066 c -0.82152,-3.27318 -0.25813,-7.24636 1.02752,-7.24636 0.55,2.8e-4 1.1432,1.7468 1.31822,3.88178 0.38145,4.65304 -1.38607,7.18824 -2.34574,3.36458 z m 15.04076,-38.72493 c -0.33263,-0.53821 1.24656,-4.25071 3.50932,-8.25 l 4.1141,-7.27143 -0.40124,5.75769 c -0.29939,4.29621 -0.99556,6.39031 -2.74264,8.25 -2.53294,2.69619 -3.53869,3.03605 -4.47954,1.51374 z m 138.02571,42.3898 c -1.04671,-6.97993 -8.9923,-33.94588 -13.58384,-46.10115 -6.635,-17.56498 -26.16166,-55.43686 -27.75936,-53.83916 -0.25164,0.25163 0.93997,4.86112 2.648,10.2433 6.95255,21.90818 10.33914,39.71427 12.85492,67.58887 1.71204,18.96917 1.87182,19.7776 3.79431,19.19788 7.98618,-2.4082 14.03179,-0.88315 19.43132,4.90171 1.33338,1.42853 2.62197,2.59732 2.86355,2.59732 0.24157,4.9e-4 0.12957,-2.06495 -0.2489,-4.58877 z m -30.06171,-30.91123 c -3.0359,-27.42087 -8.75226,-50.37011 -18.05882,-72.5 -4.54335,-10.80355 -10.01982,-19.21909 -9.11058,-13.99999 0.23955,1.375 1.49396,7.225 2.78759,13 2.03998,9.10679 2.34743,13.08736 2.31717,29.99999 -0.0328,18.35767 -0.19569,20.02723 -2.77963,28.5 -1.50961,4.95 -4.49815,12.825 -6.6412,17.5 -3.81246,8.31677 -7.43233,19.89277 -6.50922,20.81588 0.25553,0.25553 2.2496,-1.14805 4.43129,-3.11907 2.18168,-1.97102 5.32122,-4.28412 6.97676,-5.14024 3.71629,-1.92176 11.09936,-2.01284 15.39152,-0.18988 3.23435,1.3737 11.55406,9.11605 11.90695,11.08065 0.104,0.57896 0.36005,-1.64735 0.56899,-4.94735 0.20895,-3.3 -0.36742,-12.75 -1.28082,-21 z m -70.73182,-3.25 c -0.29721,-4.2625 -1.31037,-9.6625 -2.25148,-12 -3.15633,-7.83964 -4.36699,-4.8336 -3.92672,9.75 0.15774,5.225 0.31964,9.6125 0.35979,9.75 0.0401,0.1375 1.48729,0.25 3.21588,0.25 l 3.1429,3e-5 z m -34.66219,-44.94418 c 1.58785,-3.70429 1.87038,-5.82892 1.33983,-10.07536 -0.36979,-2.95965 -1.02984,-5.00977 -1.46679,-4.55582 -1.70706,1.77349 -3.90565,19.32536 -2.42073,19.32536 0.29454,4e-5 1.44101,-2.11238 2.54769,-4.69418 z m 45.91677,-15.30582 c 0,-2.10908 -1.45488,-2.69104 -2.5,-1 -0.7292,1.17987 0.21667,3 1.55902,3 0.51754,2e-5 0.94098,-0.9 0.94098,-2 z M 224.6542,137.85828 c 0.0146,-1.87782 -0.0924,-1.86428 -2.23469,0.28292 -1.89993,1.90427 -2.02073,2.39738 -0.77639,3.16942 1.70339,1.05687 2.9875,-0.41542 3.01108,-3.45234 z"
       id="path1" />
  </g>
</svg>